<svg width="180" height="55" viewBox="0 0 180 55" fill="none" xmlns="http://www.w3.org/2000/svg">
<g clip-path="url(#clip0_1_2349)">
<path d="M22.6677 22H11.3354V33H22.6677V22Z" fill="black"/>
<path d="M22.6677 55C16.4094 55 10.7432 52.5359 6.6393 48.5554C2.53856 44.5717 0 39.0718 0 33H11.3355C11.3355 39.0718 16.4094 44 22.6677 44V55Z" fill="black"/>
<path d="M34 22H22.6677C22.6677 15.9251 17.5938 11 11.3354 11V0C23.8554 0 34 9.84718 34 21.9969V22Z" fill="black"/>
</g>
<path d="M58.852 41.54C56.824 41.54 55.03 41.126 53.47 40.298C51.922 39.458 50.71 38.288 49.834 36.788C48.958 35.276 48.52 33.5 48.52 31.46V15.098L52.336 15.08V31.262C52.336 32.366 52.522 33.338 52.894 34.178C53.266 35.018 53.764 35.72 54.388 36.284C55.012 36.848 55.708 37.274 56.476 37.562C57.256 37.85 58.048 37.994 58.852 37.994C59.668 37.994 60.46 37.85 61.228 37.562C62.008 37.262 62.71 36.83 63.334 36.266C63.958 35.702 64.45 35 64.81 34.16C65.182 33.32 65.368 32.354 65.368 31.262V15.08H69.184V31.46C69.184 33.488 68.746 35.258 67.87 36.77C66.994 38.282 65.776 39.458 64.216 40.298C62.668 41.126 60.88 41.54 58.852 41.54ZM73.4192 41V15.08H83.8952C84.1472 15.08 84.4592 15.092 84.8312 15.116C85.2032 15.128 85.5572 15.164 85.8932 15.224C87.3332 15.452 88.5332 15.944 89.4932 16.7C90.4652 17.456 91.1912 18.41 91.6712 19.562C92.1512 20.714 92.3912 21.986 92.3912 23.378C92.3912 24.782 92.1512 26.06 91.6712 27.212C91.1912 28.364 90.4652 29.318 89.4932 30.074C88.5332 30.83 87.3332 31.322 85.8932 31.55C85.5572 31.598 85.1972 31.634 84.8132 31.658C84.4412 31.682 84.1352 31.694 83.8952 31.694H77.1812V41H73.4192ZM77.1812 28.13H83.7512C83.9912 28.13 84.2552 28.118 84.5432 28.094C84.8432 28.07 85.1252 28.028 85.3892 27.968C86.1572 27.788 86.7752 27.458 87.2432 26.978C87.7112 26.486 88.0472 25.922 88.2512 25.286C88.4552 24.65 88.5572 24.014 88.5572 23.378C88.5572 22.742 88.4552 22.112 88.2512 21.488C88.0472 20.852 87.7112 20.294 87.2432 19.814C86.7752 19.322 86.1572 18.986 85.3892 18.806C85.1252 18.734 84.8432 18.686 84.5432 18.662C84.2552 18.638 83.9912 18.626 83.7512 18.626H77.1812V28.13ZM108.059 41V18.626H99.4366V15.08H120.443V18.626H111.821V41H108.059ZM128.262 41.54C126.33 41.54 124.632 41.12 123.168 40.28C121.716 39.428 120.582 38.246 119.766 36.734C118.962 35.21 118.56 33.446 118.56 31.442C118.56 29.318 118.956 27.476 119.748 25.916C120.552 24.356 121.668 23.15 123.096 22.298C124.524 21.446 126.186 21.02 128.082 21.02C130.062 21.02 131.748 21.482 133.14 22.406C134.532 23.318 135.57 24.62 136.254 26.312C136.95 28.004 137.226 30.014 137.082 32.342H133.32V30.974C133.296 28.718 132.864 27.05 132.024 25.97C131.196 24.89 129.93 24.35 128.226 24.35C126.342 24.35 124.926 24.944 123.978 26.132C123.03 27.32 122.556 29.036 122.556 31.28C122.556 33.416 123.03 35.072 123.978 36.248C124.926 37.412 126.294 37.994 128.082 37.994C129.258 37.994 130.272 37.73 131.124 37.202C131.988 36.662 132.66 35.894 133.14 34.898L136.83 36.068C136.074 37.808 134.928 39.158 133.392 40.118C131.856 41.066 130.146 41.54 128.262 41.54ZM121.332 32.342V29.408H135.21V32.342H121.332ZM148.637 41.54C146.645 41.54 144.953 41.096 143.561 40.208C142.169 39.32 141.101 38.102 140.357 36.554C139.625 35.006 139.253 33.248 139.241 31.28C139.253 29.276 139.637 27.506 140.393 25.97C141.149 24.422 142.229 23.21 143.633 22.334C145.037 21.458 146.723 21.02 148.691 21.02C150.815 21.02 152.627 21.548 154.127 22.604C155.639 23.66 156.635 25.106 157.115 26.942L153.371 28.022C152.999 26.93 152.387 26.084 151.535 25.484C150.695 24.872 149.729 24.566 148.637 24.566C147.401 24.566 146.387 24.86 145.595 25.448C144.803 26.024 144.215 26.816 143.831 27.824C143.447 28.832 143.249 29.984 143.237 31.28C143.249 33.284 143.705 34.904 144.605 36.14C145.517 37.376 146.861 37.994 148.637 37.994C149.849 37.994 150.827 37.718 151.571 37.166C152.327 36.602 152.903 35.798 153.299 34.754L157.115 35.654C156.479 37.55 155.429 39.008 153.965 40.028C152.501 41.036 150.725 41.54 148.637 41.54ZM173.626 41V31.442C173.626 30.686 173.56 29.912 173.428 29.12C173.308 28.316 173.068 27.572 172.708 26.888C172.36 26.204 171.862 25.652 171.214 25.232C170.578 24.812 169.744 24.602 168.712 24.602C168.04 24.602 167.404 24.716 166.804 24.944C166.204 25.16 165.676 25.514 165.22 26.006C164.776 26.498 164.422 27.146 164.158 27.95C163.906 28.754 163.78 29.732 163.78 30.884L161.44 30.002C161.44 28.238 161.77 26.684 162.43 25.34C163.09 23.984 164.038 22.928 165.274 22.172C166.51 21.416 168.004 21.038 169.756 21.038C171.1 21.038 172.228 21.254 173.14 21.686C174.052 22.118 174.79 22.688 175.354 23.396C175.93 24.092 176.368 24.854 176.668 25.682C176.968 26.51 177.172 27.32 177.28 28.112C177.388 28.904 177.442 29.6 177.442 30.2V41H173.626ZM159.964 41V15.08H163.33V29.066H163.78V41H159.964Z" fill="black"/>
<defs>
<clipPath id="clip0_1_2349">
<rect width="34" height="55" fill="white"/>
</clipPath>
</defs>
</svg>
